<svg id="date_range-black-18dp" xmlns="http://www.w3.org/2000/svg" width="67.469" height="67.469" viewBox="0 0 67.469 67.469">
  <path id="パス_3" data-name="パス 3" d="M0,0H67.469V67.469H0Z" fill="none"/>
  <path id="パス_4" data-name="パス 4" d="M19.867,27.3H14.245v5.622h5.622Zm11.245,0H25.49v5.622h5.622Zm11.245,0H36.734v5.622h5.622ZM47.979,7.622H45.168V2H39.546V7.622H17.056V2H11.434V7.622H8.622a5.6,5.6,0,0,0-5.594,5.622L3,52.6a5.621,5.621,0,0,0,5.622,5.622H47.979A5.639,5.639,0,0,0,53.6,52.6V13.245A5.639,5.639,0,0,0,47.979,7.622Zm0,44.979H8.622V21.678H47.979Z" transform="translate(5.434 3.622)" fill="#417bd3"/>
</svg>
