<svg xmlns="http://www.w3.org/2000/svg" width="354" height="178" viewBox="0 0 354 178">
  <path id="前面オブジェクトで型抜き_1" data-name="前面オブジェクトで型抜き 1" d="M-923,425a178.306,178.306,0,0,1-35.672-3.6A176.111,176.111,0,0,1-991.9,411.09a177.019,177.019,0,0,1-30.066-16.319,178.266,178.266,0,0,1-26.2-21.613,178.276,178.276,0,0,1-21.613-26.2A177.012,177.012,0,0,1-1086.09,316.9a176.111,176.111,0,0,1-10.314-33.225A178.316,178.316,0,0,1-1100,248c0-.334,0-.667,0-1H-746v.125q0,.437,0,.876a178.314,178.314,0,0,1-3.6,35.672A176.11,176.11,0,0,1-759.91,316.9a177.016,177.016,0,0,1-16.319,30.066,178.273,178.273,0,0,1-21.613,26.2,178.271,178.271,0,0,1-26.2,21.613A177.017,177.017,0,0,1-854.1,411.09,176.11,176.11,0,0,1-887.329,421.4,178.306,178.306,0,0,1-923,425Z" transform="translate(1100 -247)" fill="#fff"/>
</svg>
